<?xml version="1.0" encoding="utf-8"?>
<!-- Generator: Adobe Illustrator 16.0.0, SVG Export Plug-In . SVG Version: 6.00 Build 0)  -->
<!DOCTYPE svg PUBLIC "-//W3C//DTD SVG 1.1//EN" "http://www.w3.org/Graphics/SVG/1.1/DTD/svg11.dtd">
<svg version="1.1" id="Layer_1" xmlns="http://www.w3.org/2000/svg" xmlns:xlink="http://www.w3.org/1999/xlink" x="0px" y="0px"
	 width="431px" height="342px" viewBox="0 0 431 342" enable-background="new 0 0 431 342" xml:space="preserve">
<path fill="#4B853D" d="M242.5,1.7c-9.3,1.1-23.2,3.9-31.8,6.5c-50.9,15-93.4,55.6-111.7,106.6l-3.101,8.8L48.2,147.4L0.5,171.2
	L48.4,195.4l47.9,24.1l3.3,9.2c16.8,48.1,55.8,86.6,105.3,103.7C251.5,348.6,304.8,342.9,347.5,317.2c3.3-2,6.699-4.2,7.5-4.9
	c0.8-0.6,4.899-3.8,9-7.1c40.199-31.5,63.8-77.3,65.699-127.2c1-24.7-2.899-46.7-12.6-71.5c-5.1-13.2-21-38.3-31.7-50.2
	C359.5,27.5,321.5,7.7,282,2.4C272.5,1.2,250.2,0.7,242.5,1.7z M289,44.9c23.399,5.9,42.699,16.3,59.1,31.6
	c18.8,17.5,30,36.6,37.6,64c3.4,12.3,4.301,36.4,1.9,51.5c-3.1,19.3-12.4,41.9-23.3,56.5c-6.9,9.3-17.7,20.2-24.2,24.7
	c-2.5,1.8-6.8,4.7-9.6,6.6c-11.301,7.7-31.9,16.2-47,19.3c-8.3,1.7-36.2,1.7-45.5,0c-17.3-3.1-35.9-10.6-51-20.6
	c-10-6.6-28.3-25-34.9-35c-9.7-14.9-17.2-33.4-20.2-50.5c-2-10.8-1.699-35.5,0.5-46C143.5,93.3,184.7,52.8,237.7,43.5
	C249.6,41.4,278.1,42.2,289,44.9z"/>
<path fill="#4B853D" d="M300.2,114.3c-1.2,1.3-2.2,2.7-2.2,3.1c0,0.5-1.3,2.5-3,4.6c-1.601,2.1-3,4.2-3,4.8c0,0.6-0.4,1.2-0.9,1.4
	c-0.5,0.1-3.899,4.8-7.5,10.3c-9.1,13.8-9,13.6-10.3,15.1c-0.7,0.7-1.3,1.5-1.3,1.9c0,0.8-4.3,6.9-5.2,7.3c-0.5,0.2-0.8,0.8-0.8,1.3
	c0,1.1-4.2,7.2-5.2,7.7c-0.5,0.2-0.8,0.8-0.8,1.3c0,0.9-3.8,6.801-5.101,7.9c-0.3,0.3-1.1,1.5-1.8,2.7c-0.6,1.3-2,2.7-3.1,3.3
	c-1.601,0.9-3.5-0.5-13.601-10.2c-13.1-12.7-13.699-13.2-16.5-12.3C217.1,165.4,207,176,207,178.1c0,0.9,9.1,10.7,20.1,21.9
	c23.101,23.1,24.2,23.8,30.2,17.9c1.8-1.9,3.7-4.2,4-5.2c0.4-0.9,1.1-1.7,1.7-1.7c0.5,0,1-0.5,1-1c0-1.2,4.1-7.3,5.3-7.8
	c0.4-0.2,0.7-0.8,0.7-1.3c0-0.9,3.6-6.601,5-7.9c0.3-0.3,2.8-3.9,5.5-8c2.8-4.1,5.3-7.7,5.8-7.8c0.4-0.2,0.7-1,0.7-1.8
	c0-0.801,0.7-1.7,1.5-2c0.8-0.4,1.5-1.2,1.5-1.9c0-1,0.899-2.4,5-7.2c0.5-0.7,1-1.6,1-2.1c0-0.8,1.1-2.3,5-6.9c0.5-0.7,1-1.6,1-2.1
	c0-0.8,1.1-2.3,5-6.9c0.5-0.7,1-1.6,1-2.1s0.899-2,2-3.3c3.3-4.1,3.5-4.3,6-8.4c1.3-2.2,2.8-4.2,3.199-4.3
	c0.4-0.2,0.801-1.9,0.801-3.8c0-2.8-0.601-3.8-3-5.2c-1.601-0.9-3-2-3-2.5c0-0.4-0.5-0.7-1.101-0.7c-0.6,0-2.2-0.9-3.6-2
	C305.9,111.4,302.8,111.5,300.2,114.3z"/>
</svg>
