<?xml version="1.0" encoding="utf-8"?>
<!-- Generator: Adobe Illustrator 16.0.0, SVG Export Plug-In . SVG Version: 6.00 Build 0)  -->
<!DOCTYPE svg PUBLIC "-//W3C//DTD SVG 1.1//EN" "http://www.w3.org/Graphics/SVG/1.1/DTD/svg11.dtd">
<svg version="1.1" id="Layer_1" xmlns="http://www.w3.org/2000/svg" xmlns:xlink="http://www.w3.org/1999/xlink" x="0px" y="0px"
	 width="431px" height="342px" viewBox="0 0 431 342" enable-background="new 0 0 431 342" xml:space="preserve">
<path fill="#ED1823" d="M187.851,340.952c9.3-1.1,23.2-3.9,31.8-6.5c50.9-15,93.4-55.6,111.7-106.6l3.101-8.801l47.699-23.8
	l47.7-23.8l-47.899-24.2l-47.9-24.1l-3.3-9.2c-16.8-48.1-55.8-86.6-105.3-103.7c-46.601-16.199-99.901-10.5-142.601,15.2
	c-3.3,2-6.699,4.2-7.5,4.9c-0.8,0.6-4.899,3.8-9,7.1c-40.199,31.5-63.8,77.3-65.699,127.2c-1,24.7,2.899,46.7,12.6,71.5
	c5.1,13.2,21,38.3,31.7,50.2c25.899,28.8,63.899,48.6,103.399,53.899C157.851,341.452,180.151,341.952,187.851,340.952z
	 M141.351,297.752c-23.399-5.899-42.699-16.3-59.1-31.6c-18.8-17.5-30-36.601-37.6-64c-3.4-12.3-4.301-36.4-1.9-51.5
	c3.1-19.3,12.4-41.9,23.3-56.5c6.9-9.3,17.7-20.2,24.2-24.7c2.5-1.8,6.8-4.7,9.6-6.6c11.301-7.7,31.9-16.2,47-19.3
	c8.3-1.7,36.2-1.7,45.5,0c17.3,3.1,35.901,10.6,51,20.6c10,6.6,28.3,25,34.9,35c9.7,14.9,17.2,33.4,20.2,50.5
	c2,10.8,1.699,35.5-0.5,46c-11.101,53.7-52.301,94.2-105.301,103.5C180.752,301.252,152.252,300.452,141.351,297.752z"/>
<path fill="#4B853D" d="M203.552,123.813c-1.2,1.301-2.2,2.7-2.2,3.101c0,0.5-1.3,2.5-3,4.6c-1.601,2.101-3,4.2-3,4.8
	c0,0.601-0.4,1.2-0.9,1.4c-0.5,0.1-3.899,4.8-7.5,10.3c-9.1,13.8-9,13.601-10.3,15.101c-0.7,0.699-1.3,1.5-1.3,1.899
	c0,0.8-4.3,6.9-5.2,7.3c-0.5,0.2-0.8,0.801-0.8,1.301c0,1.1-4.2,7.199-5.2,7.699c-0.5,0.2-0.8,0.8-0.8,1.3
	c0,0.9-3.8,6.801-5.101,7.9c-0.3,0.3-1.1,1.5-1.8,2.7c-0.6,1.3-2,2.7-3.1,3.3c-1.601,0.9-3.5-0.5-13.601-10.2
	c-13.1-12.699-13.699-13.199-16.5-12.3c-2.8,0.9-12.9,11.5-12.9,13.6c0,0.9,9.1,10.7,20.1,21.9c23.101,23.1,24.2,23.8,30.2,17.9
	c1.8-1.9,3.7-4.2,4-5.2c0.4-0.9,1.1-1.7,1.7-1.7c0.5,0,1-0.5,1-1c0-1.2,4.1-7.3,5.3-7.8c0.4-0.2,0.7-0.8,0.7-1.3
	c0-0.9,3.6-6.601,5-7.9c0.3-0.3,2.8-3.9,5.5-8c2.8-4.1,5.3-7.7,5.8-7.8c0.4-0.2,0.7-1,0.7-1.8c0-0.801,0.7-1.7,1.5-2
	c0.8-0.4,1.5-1.2,1.5-1.9c0-1,0.899-2.399,5-7.2c0.5-0.699,1-1.6,1-2.1c0-0.8,1.1-2.3,5-6.9c0.5-0.699,1-1.6,1-2.1
	c0-0.8,1.1-2.3,5-6.9c0.5-0.699,1-1.6,1-2.1s0.899-2,2-3.3c3.3-4.101,3.5-4.3,6-8.4c1.3-2.2,2.8-4.2,3.199-4.3
	c0.4-0.2,0.801-1.9,0.801-3.8c0-2.8-0.601-3.8-3-5.2c-1.601-0.9-3-2-3-2.5c0-0.4-0.5-0.7-1.101-0.7c-0.6,0-2.2-0.899-3.6-2
	C209.251,120.914,206.152,121.014,203.552,123.813z"/>
</svg>
